<svg width="26" height="26" viewBox="0 0 26 26" fill="none" xmlns="http://www.w3.org/2000/svg">
<g clip-path="url(#clip0_15_101)">
<path d="M14.5161 15.5654V26.0002H23.1002C24.2159 26.0002 25.1207 25.0958 25.1207 23.9795V15.5654H14.5161Z" fill="#FFBC33"/>
<path d="M11.481 15.5654H0.880127V23.9795C0.880127 25.0958 1.78523 26.0002 2.90078 26.0002H11.481V15.5654ZM3.63486 23.8797C3.21594 23.8797 2.87607 23.5398 2.87607 23.121V18.9109C2.87607 18.492 3.21601 18.1521 3.63486 18.1521C4.05371 18.1521 4.39365 18.4921 4.39365 18.9109V23.121C4.39365 23.5398 4.05378 23.8797 3.63486 23.8797Z" fill="#FFBC33"/>
<path d="M23.7574 7.65276H19.9623C20.4861 7.40134 20.9255 7.14161 21.1912 6.87618C22.7544 5.31323 22.7544 2.7779 21.1912 1.2147C20.4087 0.433189 19.3842 0.0424997 18.3597 0.0424997C17.335 0.0424997 16.3103 0.433189 15.5288 1.2147C14.8797 1.86397 14.2553 3.46654 13.7455 5.11795C13.5074 5.0526 13.2623 5.00683 13.0045 5.00683C12.7476 5.00683 12.5024 5.05266 12.2654 5.1175C11.7536 3.45118 11.1233 1.82685 10.4681 1.17213C9.68655 0.390626 8.66298 0 7.63735 0C6.61275 0 5.58815 0.39069 4.80658 1.17213C3.24344 2.73592 3.24344 5.27073 4.80658 6.83361C5.08622 7.11447 5.55736 7.38912 6.12266 7.65276H2.24271C1.12709 7.65276 0.223145 8.55703 0.223145 9.67251V11.3912C0.223145 12.5068 1.12709 13.4106 2.24271 13.4106H11.481V7.73289H14.5161V13.4106H23.7575C24.8729 13.4106 25.777 12.5067 25.777 11.3911V9.67245C25.777 8.55703 24.8729 7.65276 23.7574 7.65276ZM16.9597 2.64548C17.3331 2.27181 17.8309 2.06578 18.3597 2.06578C18.8891 2.06578 19.3863 2.27181 19.7608 2.64548C20.1342 3.01933 20.3398 3.5164 20.3398 4.04547C20.3398 4.57454 20.1342 5.07154 19.7627 5.44303C19.3447 5.83737 17.7077 6.45176 15.6839 7.02403C15.6267 6.82779 15.5495 6.64211 15.4518 6.46616C16.0031 4.5618 16.5822 3.04455 16.9597 2.64548ZM6.23729 2.60298C6.61083 2.22957 7.10873 2.02353 7.63742 2.02353C8.16693 2.02353 8.664 2.22906 9.03638 2.60195C9.4169 3.00461 10.0027 4.54151 10.558 6.46565C10.4661 6.63059 10.3931 6.80462 10.3357 6.9878C8.30237 6.41483 6.65525 5.7973 6.23723 5.40315C5.46558 4.63099 5.46558 3.37514 6.23729 2.60298Z" fill="#FFBC33"/>
</g>
<defs>
<clipPath id="clip0_15_101">
<rect width="26" height="26" fill="white"/>
</clipPath>
</defs>
</svg>
